<svg width="25" height="24" viewBox="0 0 25 24" fill="none" xmlns="http://www.w3.org/2000/svg">
<ellipse cx="12.1633" cy="12.0054" rx="12.0158" ry="12" fill="white"/>
<mask id="mask0_4_147" style="mask-type:luminance" maskUnits="userSpaceOnUse" x="3" y="3" width="19" height="19">
<rect x="3.15137" y="3.00537" width="18.0237" height="18" fill="white"/>
</mask>
<g mask="url(#mask0_4_147)">
<path fill-rule="evenodd" clip-rule="evenodd" d="M19.527 10.5365H18.9221V10.5054H12.1632V13.5054H16.4074C15.7882 15.2517 14.1244 16.5054 12.1632 16.5054C9.6748 16.5054 7.65727 14.4905 7.65727 12.0054C7.65727 9.52025 9.6748 7.50537 12.1632 7.50537C13.3118 7.50537 14.3568 7.93812 15.1525 8.645L17.2767 6.52362C15.9354 5.27525 14.1413 4.50537 12.1632 4.50537C8.01587 4.50537 4.65332 7.8635 4.65332 12.0054C4.65332 16.1472 8.01587 19.5054 12.1632 19.5054C16.3105 19.5054 19.6731 16.1472 19.6731 12.0054C19.6731 11.5025 19.6213 11.0116 19.527 10.5365Z" fill="#FFC107"/>
<path fill-rule="evenodd" clip-rule="evenodd" d="M5.51929 8.5145L7.98666 10.3216C8.65429 8.67087 10.2712 7.50537 12.1633 7.50537C13.3119 7.50537 14.3569 7.93812 15.1526 8.645L17.2768 6.52362C15.9355 5.27525 14.1414 4.50537 12.1633 4.50537C9.27873 4.50537 6.77719 6.13175 5.51929 8.5145Z" fill="#FF3D00"/>
<path fill-rule="evenodd" clip-rule="evenodd" d="M12.1632 19.5056C14.103 19.5056 15.8656 18.7643 17.1982 17.5586L14.8739 15.5944C14.1199 16.1648 13.1827 16.5056 12.1632 16.5056C10.2099 16.5056 8.55133 15.2618 7.92651 13.5259L5.47754 15.4103C6.72042 17.8391 9.24449 19.5056 12.1632 19.5056Z" fill="#4CAF50"/>
<path fill-rule="evenodd" clip-rule="evenodd" d="M19.5271 10.5365H18.9222V10.5054H12.1633V13.5054H16.4075C16.1101 14.3442 15.5698 15.0676 14.8729 15.5945C14.8733 15.5941 14.8736 15.5941 14.874 15.5937L17.1983 17.558C17.0339 17.7072 19.6732 15.7554 19.6732 12.0054C19.6732 11.5025 19.6214 11.0116 19.5271 10.5365Z" fill="#1976D2"/>
</g>
</svg>
