<svg width="111" height="112" viewBox="0 0 111 112" fill="none" xmlns="http://www.w3.org/2000/svg">
<path d="M60.634 51.9561C60.5951 52.0353 60.5539 52.1172 60.5071 52.2002L55.592 60.7432C55.5915 60.7416 55.5906 60.7401 55.5901 60.7383L59.4944 53.9414L60.634 51.9561ZM51.6438 43.584L50.4709 45.6387C50.5218 45.5299 50.5798 45.4169 50.6458 45.3008L50.6448 45.2998L52.9036 41.374L51.6438 43.584Z" fill="#3B82F6" stroke="#3B82F6" stroke-width="6.91964"/>
<path d="M41.8916 87.9233C41.9405 87.9264 41.9783 87.9293 42.0859 87.937C42.2445 87.9483 42.4765 87.9613 42.751 87.9653C42.3806 87.9622 42.025 87.9514 41.6865 87.9233H41.8916ZM70.6553 87.6489C70.1747 87.808 69.5866 87.92 68.8604 87.9556C69.3315 87.9307 69.7698 87.871 70.1582 87.7739L70.6553 87.6489ZM83.8506 22.6333C85.5597 24.6803 87.0349 26.9181 88.2256 29.3101C97.2974 47.583 88.6495 67.6254 74.3516 77.2573L72.8252 78.2856V83.646L72.8271 83.7056C72.846 84.252 72.8423 84.7524 72.7783 85.2075V78.1528C72.779 78.1503 72.7797 78.1467 72.7812 78.1431C87.5926 69.1783 97.7551 48.4988 88.1465 29.2261H88.1475C86.9712 26.8608 85.5231 24.6525 83.8506 22.6333Z" fill="#3B82F6" stroke="#3B82F6" stroke-width="6.91964"/>
<path d="M39.4463 101.757C49.978 98.7627 61.1614 98.7667 71.6914 101.769L71.6982 101.77C71.7011 101.776 71.7042 101.783 71.7051 101.79C71.7055 101.793 71.7053 101.796 71.7051 101.799C71.705 101.801 71.7045 101.803 71.7041 101.805L71.6992 101.804C61.1246 98.7696 50.0064 98.7662 39.4307 101.794C39.4225 101.797 39.4182 101.797 39.417 101.797H39.416C39.4158 101.797 39.4129 101.797 39.4082 101.794C39.4038 101.792 39.3999 101.788 39.3955 101.783C39.4076 101.774 39.4237 101.765 39.4463 101.757Z" fill="#3B82F6" stroke="#3B82F6" stroke-width="6.91964"/>
</svg>
